# Blender v2.77 (sub 0) OBJ File: ''
# www.blender.org
mtllib ring_uranus.mtl
o Circle
v 1.564191 0.000000 -0.836080
v -0.836078 0.000000 1.564192
v -0.173845 0.000000 -1.765078
v 1.371024 0.000000 -1.125174
v -0.514854 0.000000 1.697247
v -0.514854 0.000000 -1.697247
v 1.125170 0.000000 -1.371027
v -0.173845 0.000000 1.765078
v -0.836078 0.000000 -1.564192
v 0.836076 0.000000 -1.564193
v 0.173846 0.000000 1.765078
v -1.125172 0.000000 -1.371026
v 0.514852 0.000000 -1.697248
v 0.514855 0.000000 1.697247
v -1.371026 0.000000 -1.125172
v 0.173844 0.000000 -1.765079
v 0.836079 0.000000 1.564191
v -1.564192 0.000000 -0.836078
v 1.125172 0.000000 1.371025
v -1.697247 0.000000 -0.514854
v 1.371026 0.000000 1.125171
v -1.765078 0.000000 -0.173845
v 1.564192 0.000000 0.836077
v -1.765078 0.000000 0.173845
v 1.697248 0.000000 0.514853
v -1.697247 0.000000 0.514854
v 1.765078 0.000000 0.173843
v -1.564192 0.000000 0.836078
v 1.765078 0.000000 -0.173847
v -1.371026 0.000000 1.125171
v 1.697246 0.000000 -0.514856
v -1.125172 0.000000 1.371026
v -0.217322 0.000000 -2.206506
v -0.643614 0.000000 -2.121712
v -1.045173 0.000000 -1.955381
v -1.406566 0.000000 -1.713905
v -1.713905 0.000000 -1.406566
v -1.955380 0.000000 -1.045173
v -2.121711 0.000000 -0.643614
v -2.206506 0.000000 -0.217322
v -2.206506 0.000000 0.217322
v -2.121711 0.000000 0.643614
v -1.955380 0.000000 1.045172
v -1.713905 0.000000 1.406566
v -1.406566 0.000000 1.713905
v -1.045172 0.000000 1.955380
v -0.643614 0.000000 2.121711
v -0.217321 0.000000 2.206506
v 0.217323 0.000000 2.206506
v 0.643615 0.000000 2.121711
v 1.045174 0.000000 1.955380
v 1.406567 0.000000 1.713905
v 1.713906 0.000000 1.406564
v 1.955381 0.000000 1.045171
v 2.121712 0.000000 0.643612
v 2.206506 0.000000 0.217320
v 2.206506 0.000000 -0.217324
v 2.121711 0.000000 -0.643616
v 1.955379 0.000000 -1.045175
v 1.713904 0.000000 -1.406568
v 1.406564 0.000000 -1.713907
v 1.045170 0.000000 -1.955382
v 0.643611 0.000000 -2.121712
v 0.217320 0.000000 -2.206507
v -0.135063 0.000000 -1.371318
v -0.399999 0.000000 -1.318619
v -0.649563 0.000000 -1.215246
v -0.874164 0.000000 -1.065172
v -1.065172 0.000000 -0.874164
v -1.215246 0.000000 -0.649563
v -1.318619 0.000000 -0.399999
v -1.371318 0.000000 -0.135063
v -1.371318 0.000000 0.135063
v -1.318619 0.000000 0.399998
v -1.215246 0.000000 0.649562
v -1.065172 0.000000 0.874164
v -0.874164 0.000000 1.065172
v -0.649562 0.000000 1.215246
v -0.399998 0.000000 1.318619
v -0.135063 0.000000 1.371317
v 0.135063 0.000000 1.371317
v 0.399999 0.000000 1.318618
v 0.649563 0.000000 1.215245
v 0.874165 0.000000 1.065171
v 1.065173 0.000000 0.874163
v 1.215246 0.000000 0.649561
v 1.318619 0.000000 0.399997
v 1.371318 0.000000 0.135061
v 1.371318 0.000000 -0.135065
v 1.318618 0.000000 -0.400000
v 1.215245 0.000000 -0.649564
v 1.065171 0.000000 -0.874166
v 0.874163 0.000000 -1.065174
v 0.649561 0.000000 -1.215247
v 0.399997 0.000000 -1.318620
v 0.135062 0.000000 -1.371318
v 1.638628 0.000000 -0.678744
v 1.474726 0.000000 -0.985383
v -0.985381 0.000000 1.474727
v -0.678742 0.000000 1.638629
v -0.000000 0.000000 -1.773640
v -0.346020 0.000000 -1.739559
v 1.254151 0.000000 -1.254154
v -0.346020 0.000000 1.739559
v -0.678742 0.000000 -1.638629
v 0.985379 0.000000 -1.474729
v 0.000001 0.000000 1.773639
v -0.985381 0.000000 -1.474727
v 0.678740 0.000000 -1.638630
v 0.346021 0.000000 1.739559
v -1.254153 0.000000 -1.254153
v 0.346018 0.000000 -1.739560
v 0.678743 0.000000 1.638628
v -1.474727 0.000000 -0.985381
v 0.985382 0.000000 1.474726
v -1.638629 0.000000 -0.678743
v 1.254153 0.000000 1.254151
v -1.739559 0.000000 -0.346020
v 1.474728 0.000000 0.985380
v -1.773639 0.000000 -0.000000
v 1.638629 0.000000 0.678741
v -1.739560 0.000000 0.346019
v 1.739559 0.000000 0.346018
v -1.638629 0.000000 0.678742
v 1.773639 0.000000 -0.000002
v -1.474727 0.000000 0.985381
v 1.739559 0.000000 -0.346022
v -1.254153 0.000000 1.254152
v -0.000000 0.000000 -2.217209
v -0.432556 0.000000 -2.174606
v -0.848489 0.000000 -2.048434
v -1.231815 0.000000 -1.843542
v -1.567803 0.000000 -1.567803
v -1.843541 0.000000 -1.231815
v -2.048433 0.000000 -0.848489
v -2.174605 0.000000 -0.432556
v -2.217209 0.000000 -0.000000
v -2.174606 0.000000 0.432556
v -2.048434 0.000000 0.848489
v -1.843541 0.000000 1.231815
v -1.567803 0.000000 1.567803
v -1.231815 0.000000 1.843541
v -0.848489 0.000000 2.048434
v -0.432555 0.000000 2.174606
v 0.000001 0.000000 2.217208
v 0.432557 0.000000 2.174605
v 0.848490 0.000000 2.048433
v 1.231816 0.000000 1.843541
v 1.567804 0.000000 1.567802
v 1.843542 0.000000 1.231813
v 2.048434 0.000000 0.848487
v 2.174606 0.000000 0.432554
v 2.217208 0.000000 -0.000002
v 2.174605 0.000000 -0.432558
v 2.048433 0.000000 -0.848491
v 1.843540 0.000000 -1.231817
v 1.567801 0.000000 -1.567805
v 1.231812 0.000000 -1.843543
v 0.848486 0.000000 -2.048435
v 0.432553 0.000000 -2.174606
v -0.000000 0.000000 -1.377970
v -0.268829 0.000000 -1.351492
v -0.527326 0.000000 -1.273078
v -0.765559 0.000000 -1.145740
v -0.974371 0.000000 -0.974371
v -1.145740 0.000000 -0.765559
v -1.273077 0.000000 -0.527326
v -1.351492 0.000000 -0.268829
v -1.377969 0.000000 -0.000000
v -1.351492 0.000000 0.268828
v -1.273077 0.000000 0.527325
v -1.145740 0.000000 0.765558
v -0.974371 0.000000 0.974371
v -0.765559 0.000000 1.145739
v -0.527326 0.000000 1.273077
v -0.268828 0.000000 1.351491
v 0.000000 0.000000 1.377969
v 0.268829 0.000000 1.351491
v 0.527326 0.000000 1.273077
v 0.765559 0.000000 1.145738
v 0.974372 0.000000 0.974370
v 1.145740 0.000000 0.765557
v 1.273078 0.000000 0.527324
v 1.351492 0.000000 0.268827
v 1.377969 0.000000 -0.000002
v 1.351491 0.000000 -0.268830
v 1.273076 0.000000 -0.527328
v 1.145738 0.000000 -0.765560
v 0.974370 0.000000 -0.974373
v 0.765557 0.000000 -1.145741
v 0.527324 0.000000 -1.273078
v 0.268827 0.000000 -1.351493
vt 0.5050 1.0001
vt -0.0008 0.5000
vt 0.5050 0.5000
vt 0.5050 -0.0001
vt 1.0059 -0.0001
vt 1.0059 0.5000
vt 1.0059 1.0001
vt 0.5050 1.0001
vt -0.0008 0.5000
vt 0.5050 0.5000
vt 0.5050 -0.0001
vt 1.0059 -0.0001
vt 1.0059 0.5000
vt 1.0059 1.0001
vt 0.5050 1.0001
vt -0.0008 0.5000
vt 0.5050 0.5000
vt 0.5050 -0.0001
vt 1.0059 -0.0001
vt 1.0059 0.5000
vt 1.0059 1.0001
vt 0.5050 1.0001
vt -0.0008 0.5000
vt 0.5050 0.5000
vt 0.5050 -0.0001
vt 1.0059 -0.0001
vt 1.0059 0.5000
vt 1.0059 1.0001
vt 0.5050 1.0001
vt -0.0008 0.5000
vt 0.5050 0.5000
vt 0.5050 -0.0001
vt 1.0059 -0.0001
vt 1.0059 0.5000
vt 1.0059 1.0001
vt 0.5050 1.0001
vt -0.0008 0.5000
vt 0.5050 0.5000
vt 0.5050 -0.0001
vt 1.0059 -0.0001
vt 1.0059 0.5000
vt 1.0059 1.0001
vt 0.5050 1.0001
vt -0.0008 0.5000
vt 0.5050 0.5000
vt 0.5050 -0.0001
vt 1.0059 -0.0001
vt 1.0059 0.5000
vt 1.0059 1.0001
vt 0.5050 1.0001
vt -0.0008 0.5000
vt 0.5050 0.5000
vt 0.5050 -0.0001
vt 1.0059 -0.0001
vt 1.0059 0.5000
vt 1.0059 1.0001
vt 0.5050 1.0001
vt -0.0008 0.5000
vt 0.5050 0.5000
vt 0.5050 -0.0001
vt 1.0059 -0.0001
vt 1.0059 0.5000
vt 1.0059 1.0001
vt 0.5050 1.0001
vt -0.0008 0.5000
vt 0.5050 0.5000
vt 0.5050 -0.0001
vt 1.0059 -0.0001
vt 1.0059 0.5000
vt 1.0059 1.0001
vt 0.5050 1.0001
vt -0.0008 0.5000
vt 0.5050 0.5000
vt 0.5050 -0.0001
vt 1.0059 -0.0001
vt 1.0059 0.5000
vt 1.0059 1.0001
vt 0.5050 1.0001
vt -0.0008 0.5000
vt 0.5050 0.5000
vt 0.5050 -0.0001
vt 1.0059 -0.0001
vt 1.0059 0.5000
vt 1.0059 1.0001
vt 0.5050 1.0001
vt -0.0008 0.5000
vt 0.5050 0.5000
vt 0.5050 -0.0001
vt 1.0059 -0.0001
vt 1.0059 0.5000
vt 1.0059 1.0001
vt 0.5050 1.0001
vt -0.0008 0.5000
vt 0.5050 0.5000
vt 0.5050 -0.0001
vt 1.0059 -0.0001
vt 1.0059 0.5000
vt 1.0059 1.0001
vt 0.5050 1.0001
vt -0.0008 0.5000
vt 0.5050 0.5000
vt 0.5050 -0.0001
vt 1.0059 -0.0001
vt 1.0059 0.5000
vt 1.0059 1.0001
vt 0.5050 1.0001
vt -0.0008 0.5000
vt 0.5050 0.5000
vt 0.5050 -0.0001
vt 1.0059 -0.0001
vt 1.0059 0.5000
vt 1.0059 1.0001
vt 0.5050 1.0001
vt -0.0008 0.5000
vt 0.5050 0.5000
vt 0.5050 -0.0001
vt 1.0059 -0.0001
vt 1.0059 0.5000
vt 1.0059 1.0001
vt 0.5050 1.0001
vt -0.0008 0.5000
vt 0.5050 0.5000
vt 0.5050 -0.0001
vt 1.0059 -0.0001
vt 1.0059 0.5000
vt 1.0059 1.0001
vt 0.5050 1.0001
vt -0.0008 0.5000
vt 0.5050 0.5000
vt 0.5050 -0.0001
vt 1.0059 -0.0001
vt 1.0059 0.5000
vt 1.0059 1.0001
vt 0.5050 1.0001
vt -0.0008 0.5000
vt 0.5050 0.5000
vt 0.5050 -0.0001
vt 1.0059 -0.0001
vt 1.0059 0.5000
vt 1.0059 1.0001
vt 0.5050 1.0001
vt -0.0008 0.5000
vt 0.5050 0.5000
vt 0.5050 -0.0001
vt 1.0059 -0.0001
vt 1.0059 0.5000
vt 1.0059 1.0001
vt 0.5050 1.0001
vt -0.0008 0.5000
vt 0.5050 0.5000
vt 0.5050 -0.0001
vt 1.0059 -0.0001
vt 1.0059 0.5000
vt 1.0059 1.0001
vt 0.5050 1.0001
vt -0.0008 0.5000
vt 0.5050 0.5000
vt 0.5050 -0.0001
vt 1.0059 -0.0001
vt 1.0059 0.5000
vt 1.0059 1.0001
vt 0.5050 1.0001
vt -0.0008 0.5000
vt 0.5050 0.5000
vt 0.5050 -0.0001
vt 1.0059 -0.0001
vt 1.0059 0.5000
vt 1.0059 1.0001
vt 0.5050 1.0001
vt -0.0008 0.5000
vt 0.5050 0.5000
vt 0.5050 -0.0001
vt 1.0059 -0.0001
vt 1.0059 0.5000
vt 1.0059 1.0001
vt 0.5050 1.0001
vt -0.0008 0.5000
vt 0.5050 0.5000
vt 0.5050 -0.0001
vt 1.0059 -0.0001
vt 1.0059 0.5000
vt 1.0059 1.0001
vt 0.5050 1.0001
vt -0.0008 0.5000
vt 0.5050 0.5000
vt 0.5050 -0.0001
vt 1.0059 -0.0001
vt 1.0059 0.5000
vt 1.0059 1.0001
vt 0.5050 1.0001
vt -0.0008 0.5000
vt 0.5050 0.5000
vt 0.5050 -0.0001
vt 1.0059 -0.0001
vt 1.0059 0.5000
vt 1.0059 1.0001
vt 0.5050 1.0001
vt -0.0008 0.5000
vt 0.5050 0.5000
vt 0.5050 -0.0001
vt 1.0059 -0.0001
vt 1.0059 0.5000
vt 1.0059 1.0001
vt 0.5050 1.0001
vt -0.0008 0.5000
vt 0.5050 0.5000
vt 0.5050 -0.0001
vt 1.0059 -0.0001
vt 1.0059 0.5000
vt 1.0059 1.0001
vt 0.5050 1.0001
vt -0.0008 0.5000
vt 0.5050 0.5000
vt 0.5050 -0.0001
vt 1.0059 -0.0001
vt 1.0059 0.5000
vt 1.0059 1.0001
vt 0.5050 1.0001
vt -0.0008 0.5000
vt 0.5050 0.5000
vt 0.5050 -0.0001
vt 1.0059 -0.0001
vt 1.0059 0.5000
vt 1.0059 1.0001
vt -0.0008 1.0001
vt -0.0008 -0.0001
vt -0.0008 1.0001
vt -0.0008 -0.0001
vt -0.0008 1.0001
vt -0.0008 -0.0001
vt -0.0008 1.0001
vt -0.0008 -0.0001
vt -0.0008 1.0001
vt -0.0008 -0.0001
vt -0.0008 1.0001
vt -0.0008 -0.0001
vt -0.0008 1.0001
vt -0.0008 -0.0001
vt -0.0008 1.0001
vt -0.0008 -0.0001
vt -0.0008 1.0001
vt -0.0008 -0.0001
vt -0.0008 1.0001
vt -0.0008 -0.0001
vt -0.0008 1.0001
vt -0.0008 -0.0001
vt -0.0008 1.0001
vt -0.0008 -0.0001
vt -0.0008 1.0001
vt -0.0008 -0.0001
vt -0.0008 1.0001
vt -0.0008 -0.0001
vt -0.0008 1.0001
vt -0.0008 -0.0001
vt -0.0008 1.0001
vt -0.0008 -0.0001
vt -0.0008 1.0001
vt -0.0008 -0.0001
vt -0.0008 1.0001
vt -0.0008 -0.0001
vt -0.0008 1.0001
vt -0.0008 -0.0001
vt -0.0008 1.0001
vt -0.0008 -0.0001
vt -0.0008 1.0001
vt -0.0008 -0.0001
vt -0.0008 1.0001
vt -0.0008 -0.0001
vt -0.0008 1.0001
vt -0.0008 -0.0001
vt -0.0008 1.0001
vt -0.0008 -0.0001
vt -0.0008 1.0001
vt -0.0008 -0.0001
vt -0.0008 1.0001
vt -0.0008 -0.0001
vt -0.0008 1.0001
vt -0.0008 -0.0001
vt -0.0008 1.0001
vt -0.0008 -0.0001
vt -0.0008 1.0001
vt -0.0008 -0.0001
vt -0.0008 1.0001
vt -0.0008 -0.0001
vt -0.0008 1.0001
vt -0.0008 -0.0001
vt -0.0008 1.0001
vt -0.0008 -0.0001
vn 0.0000 -1.0000 0.0000
usemtl Material.001
s off
f 98/1/1 59/2/1 1/3/1
f 59/2/1 97/4/1 1/3/1
f 1/3/1 187/5/1 91/6/1
f 1/3/1 188/7/1 98/1/1
f 100/8/1 46/9/1 2/10/1
f 46/9/1 99/11/1 2/10/1
f 2/10/1 174/12/1 78/13/1
f 2/10/1 175/14/1 100/8/1
f 102/15/1 33/16/1 3/17/1
f 33/16/1 101/18/1 3/17/1
f 3/17/1 161/19/1 65/20/1
f 3/17/1 162/21/1 102/15/1
f 103/22/1 60/23/1 4/24/1
f 60/23/1 98/25/1 4/24/1
f 4/24/1 188/26/1 92/27/1
f 4/24/1 189/28/1 103/22/1
f 104/29/1 47/30/1 5/31/1
f 47/30/1 100/32/1 5/31/1
f 5/31/1 175/33/1 79/34/1
f 5/31/1 176/35/1 104/29/1
f 105/36/1 34/37/1 6/38/1
f 34/37/1 102/39/1 6/38/1
f 6/38/1 162/40/1 66/41/1
f 6/38/1 163/42/1 105/36/1
f 106/43/1 61/44/1 7/45/1
f 61/44/1 103/46/1 7/45/1
f 7/45/1 189/47/1 93/48/1
f 7/45/1 190/49/1 106/43/1
f 107/50/1 48/51/1 8/52/1
f 48/51/1 104/53/1 8/52/1
f 8/52/1 176/54/1 80/55/1
f 8/52/1 177/56/1 107/50/1
f 108/57/1 35/58/1 9/59/1
f 35/58/1 105/60/1 9/59/1
f 9/59/1 163/61/1 67/62/1
f 9/59/1 164/63/1 108/57/1
f 109/64/1 62/65/1 10/66/1
f 62/65/1 106/67/1 10/66/1
f 10/66/1 190/68/1 94/69/1
f 10/66/1 191/70/1 109/64/1
f 110/71/1 49/72/1 11/73/1
f 49/72/1 107/74/1 11/73/1
f 11/73/1 177/75/1 81/76/1
f 11/73/1 178/77/1 110/71/1
f 111/78/1 36/79/1 12/80/1
f 36/79/1 108/81/1 12/80/1
f 12/80/1 164/82/1 68/83/1
f 12/80/1 165/84/1 111/78/1
f 112/85/1 63/86/1 13/87/1
f 63/86/1 109/88/1 13/87/1
f 13/87/1 191/89/1 95/90/1
f 13/87/1 192/91/1 112/85/1
f 113/92/1 50/93/1 14/94/1
f 50/93/1 110/95/1 14/94/1
f 14/94/1 178/96/1 82/97/1
f 14/94/1 179/98/1 113/92/1
f 114/99/1 37/100/1 15/101/1
f 37/100/1 111/102/1 15/101/1
f 15/101/1 165/103/1 69/104/1
f 15/101/1 166/105/1 114/99/1
f 101/106/1 64/107/1 16/108/1
f 64/107/1 112/109/1 16/108/1
f 16/108/1 192/110/1 96/111/1
f 16/108/1 161/112/1 101/106/1
f 115/113/1 51/114/1 17/115/1
f 51/114/1 113/116/1 17/115/1
f 17/115/1 179/117/1 83/118/1
f 17/115/1 180/119/1 115/113/1
f 116/120/1 38/121/1 18/122/1
f 38/121/1 114/123/1 18/122/1
f 18/122/1 166/124/1 70/125/1
f 18/122/1 167/126/1 116/120/1
f 117/127/1 52/128/1 19/129/1
f 52/128/1 115/130/1 19/129/1
f 19/129/1 180/131/1 84/132/1
f 19/129/1 181/133/1 117/127/1
f 118/134/1 39/135/1 20/136/1
f 39/135/1 116/137/1 20/136/1
f 20/136/1 167/138/1 71/139/1
f 20/136/1 168/140/1 118/134/1
f 119/141/1 53/142/1 21/143/1
f 53/142/1 117/144/1 21/143/1
f 21/143/1 181/145/1 85/146/1
f 21/143/1 182/147/1 119/141/1
f 120/148/1 40/149/1 22/150/1
f 40/149/1 118/151/1 22/150/1
f 22/150/1 168/152/1 72/153/1
f 22/150/1 169/154/1 120/148/1
f 121/155/1 54/156/1 23/157/1
f 54/156/1 119/158/1 23/157/1
f 23/157/1 182/159/1 86/160/1
f 23/157/1 183/161/1 121/155/1
f 122/162/1 41/163/1 24/164/1
f 41/163/1 120/165/1 24/164/1
f 24/164/1 169/166/1 73/167/1
f 24/164/1 170/168/1 122/162/1
f 123/169/1 55/170/1 25/171/1
f 55/170/1 121/172/1 25/171/1
f 25/171/1 183/173/1 87/174/1
f 25/171/1 184/175/1 123/169/1
f 124/176/1 42/177/1 26/178/1
f 42/177/1 122/179/1 26/178/1
f 26/178/1 170/180/1 74/181/1
f 26/178/1 171/182/1 124/176/1
f 125/183/1 56/184/1 27/185/1
f 56/184/1 123/186/1 27/185/1
f 27/185/1 184/187/1 88/188/1
f 27/185/1 185/189/1 125/183/1
f 126/190/1 43/191/1 28/192/1
f 43/191/1 124/193/1 28/192/1
f 28/192/1 171/194/1 75/195/1
f 28/192/1 172/196/1 126/190/1
f 127/197/1 57/198/1 29/199/1
f 57/198/1 125/200/1 29/199/1
f 29/199/1 185/201/1 89/202/1
f 29/199/1 186/203/1 127/197/1
f 128/204/1 44/205/1 30/206/1
f 44/205/1 126/207/1 30/206/1
f 30/206/1 172/208/1 76/209/1
f 30/206/1 173/210/1 128/204/1
f 97/211/1 58/212/1 31/213/1
f 58/212/1 127/214/1 31/213/1
f 31/213/1 186/215/1 90/216/1
f 31/213/1 187/217/1 97/211/1
f 99/218/1 45/219/1 32/220/1
f 45/219/1 128/221/1 32/220/1
f 32/220/1 173/222/1 77/223/1
f 32/220/1 174/224/1 99/218/1
f 98/1/1 156/225/1 59/2/1
f 59/2/1 155/226/1 97/4/1
f 1/3/1 97/4/1 187/5/1
f 1/3/1 91/6/1 188/7/1
f 100/8/1 143/227/1 46/9/1
f 46/9/1 142/228/1 99/11/1
f 2/10/1 99/11/1 174/12/1
f 2/10/1 78/13/1 175/14/1
f 102/15/1 130/229/1 33/16/1
f 33/16/1 129/230/1 101/18/1
f 3/17/1 101/18/1 161/19/1
f 3/17/1 65/20/1 162/21/1
f 103/22/1 157/231/1 60/23/1
f 60/23/1 156/232/1 98/25/1
f 4/24/1 98/25/1 188/26/1
f 4/24/1 92/27/1 189/28/1
f 104/29/1 144/233/1 47/30/1
f 47/30/1 143/234/1 100/32/1
f 5/31/1 100/32/1 175/33/1
f 5/31/1 79/34/1 176/35/1
f 105/36/1 131/235/1 34/37/1
f 34/37/1 130/236/1 102/39/1
f 6/38/1 102/39/1 162/40/1
f 6/38/1 66/41/1 163/42/1
f 106/43/1 158/237/1 61/44/1
f 61/44/1 157/238/1 103/46/1
f 7/45/1 103/46/1 189/47/1
f 7/45/1 93/48/1 190/49/1
f 107/50/1 145/239/1 48/51/1
f 48/51/1 144/240/1 104/53/1
f 8/52/1 104/53/1 176/54/1
f 8/52/1 80/55/1 177/56/1
f 108/57/1 132/241/1 35/58/1
f 35/58/1 131/242/1 105/60/1
f 9/59/1 105/60/1 163/61/1
f 9/59/1 67/62/1 164/63/1
f 109/64/1 159/243/1 62/65/1
f 62/65/1 158/244/1 106/67/1
f 10/66/1 106/67/1 190/68/1
f 10/66/1 94/69/1 191/70/1
f 110/71/1 146/245/1 49/72/1
f 49/72/1 145/246/1 107/74/1
f 11/73/1 107/74/1 177/75/1
f 11/73/1 81/76/1 178/77/1
f 111/78/1 133/247/1 36/79/1
f 36/79/1 132/248/1 108/81/1
f 12/80/1 108/81/1 164/82/1
f 12/80/1 68/83/1 165/84/1
f 112/85/1 160/249/1 63/86/1
f 63/86/1 159/250/1 109/88/1
f 13/87/1 109/88/1 191/89/1
f 13/87/1 95/90/1 192/91/1
f 113/92/1 147/251/1 50/93/1
f 50/93/1 146/252/1 110/95/1
f 14/94/1 110/95/1 178/96/1
f 14/94/1 82/97/1 179/98/1
f 114/99/1 134/253/1 37/100/1
f 37/100/1 133/254/1 111/102/1
f 15/101/1 111/102/1 165/103/1
f 15/101/1 69/104/1 166/105/1
f 101/106/1 129/255/1 64/107/1
f 64/107/1 160/256/1 112/109/1
f 16/108/1 112/109/1 192/110/1
f 16/108/1 96/111/1 161/112/1
f 115/113/1 148/257/1 51/114/1
f 51/114/1 147/258/1 113/116/1
f 17/115/1 113/116/1 179/117/1
f 17/115/1 83/118/1 180/119/1
f 116/120/1 135/259/1 38/121/1
f 38/121/1 134/260/1 114/123/1
f 18/122/1 114/123/1 166/124/1
f 18/122/1 70/125/1 167/126/1
f 117/127/1 149/261/1 52/128/1
f 52/128/1 148/262/1 115/130/1
f 19/129/1 115/130/1 180/131/1
f 19/129/1 84/132/1 181/133/1
f 118/134/1 136/263/1 39/135/1
f 39/135/1 135/264/1 116/137/1
f 20/136/1 116/137/1 167/138/1
f 20/136/1 71/139/1 168/140/1
f 119/141/1 150/265/1 53/142/1
f 53/142/1 149/266/1 117/144/1
f 21/143/1 117/144/1 181/145/1
f 21/143/1 85/146/1 182/147/1
f 120/148/1 137/267/1 40/149/1
f 40/149/1 136/268/1 118/151/1
f 22/150/1 118/151/1 168/152/1
f 22/150/1 72/153/1 169/154/1
f 121/155/1 151/269/1 54/156/1
f 54/156/1 150/270/1 119/158/1
f 23/157/1 119/158/1 182/159/1
f 23/157/1 86/160/1 183/161/1
f 122/162/1 138/271/1 41/163/1
f 41/163/1 137/272/1 120/165/1
f 24/164/1 120/165/1 169/166/1
f 24/164/1 73/167/1 170/168/1
f 123/169/1 152/273/1 55/170/1
f 55/170/1 151/274/1 121/172/1
f 25/171/1 121/172/1 183/173/1
f 25/171/1 87/174/1 184/175/1
f 124/176/1 139/275/1 42/177/1
f 42/177/1 138/276/1 122/179/1
f 26/178/1 122/179/1 170/180/1
f 26/178/1 74/181/1 171/182/1
f 125/183/1 153/277/1 56/184/1
f 56/184/1 152/278/1 123/186/1
f 27/185/1 123/186/1 184/187/1
f 27/185/1 88/188/1 185/189/1
f 126/190/1 140/279/1 43/191/1
f 43/191/1 139/280/1 124/193/1
f 28/192/1 124/193/1 171/194/1
f 28/192/1 75/195/1 172/196/1
f 127/197/1 154/281/1 57/198/1
f 57/198/1 153/282/1 125/200/1
f 29/199/1 125/200/1 185/201/1
f 29/199/1 89/202/1 186/203/1
f 128/204/1 141/283/1 44/205/1
f 44/205/1 140/284/1 126/207/1
f 30/206/1 126/207/1 172/208/1
f 30/206/1 76/209/1 173/210/1
f 97/211/1 155/285/1 58/212/1
f 58/212/1 154/286/1 127/214/1
f 31/213/1 127/214/1 186/215/1
f 31/213/1 90/216/1 187/217/1
f 99/218/1 142/287/1 45/219/1
f 45/219/1 141/288/1 128/221/1
f 32/220/1 128/221/1 173/222/1
f 32/220/1 77/223/1 174/224/1
