# Blender v2.77 (sub 0) OBJ File: ''
# www.blender.org
mtllib board.mtl
o Cube
v 1.476155 -0.116235 -2.974231
v 1.476155 -0.116235 2.974231
v -1.476155 -0.116235 2.974231
v -1.476154 -0.116235 -2.974232
v 1.476156 0.116235 -2.974230
v 1.476154 0.116235 2.974233
v -1.476155 0.116235 2.974230
v -1.476155 0.116235 -2.974231
v 1.368091 0.116235 -2.854084
v 1.368089 0.116235 2.854087
v -1.368090 0.116235 -2.854085
v -1.368091 0.116235 2.854084
v 1.476156 1.261634 -2.974230
v 1.476154 1.261634 2.974233
v -1.476155 1.261634 -2.974231
v -1.476155 1.261634 2.974230
v 1.368091 1.261634 -2.854084
v 1.368089 1.261634 2.854087
v -1.368090 1.261634 -2.854085
v -1.368091 1.261634 2.854084
vn 0.0000 0.0000 -1.0000
vn 1.0000 -0.0000 0.0000
vn -0.0000 -0.0000 1.0000
vn -1.0000 -0.0000 -0.0000
vn 0.0000 1.0000 -0.0000
vn 0.0000 -1.0000 0.0000
usemtl Material.003
s off
f 12//1 18//1 10//1
f 5//2 2//2 1//2
f 6//3 3//3 2//3
f 7//4 4//4 3//4
f 1//1 8//1 5//1
f 8//1 13//1 5//1
f 7//4 15//4 8//4
f 9//3 19//3 11//3
f 16//5 19//5 15//5
f 15//5 17//5 13//5
f 16//5 18//5 20//5
f 13//5 18//5 14//5
f 10//4 17//4 9//4
f 6//3 16//3 7//3
f 5//2 14//2 6//2
f 11//2 20//2 12//2
f 12//1 20//1 18//1
f 5//2 6//2 2//2
f 6//3 7//3 3//3
f 7//4 8//4 4//4
f 1//1 4//1 8//1
f 8//1 15//1 13//1
f 7//4 16//4 15//4
f 9//3 17//3 19//3
f 16//5 20//5 19//5
f 15//5 19//5 17//5
f 16//5 14//5 18//5
f 13//5 17//5 18//5
f 10//4 18//4 17//4
f 6//3 14//3 16//3
f 5//2 13//2 14//2
f 11//2 19//2 20//2
usemtl Material.004
f 2//6 4//6 1//6
f 9//5 12//5 10//5
f 2//6 3//6 4//6
f 9//5 11//5 12//5
